<?xml version="1.0" encoding="utf-8"?>
<!-- Generator: Adobe Illustrator 28.0.0, SVG Export Plug-In . SVG Version: 6.00 Build 0)  -->
<svg version="1.1" id="Layer_1" xmlns="http://www.w3.org/2000/svg" xmlns:xlink="http://www.w3.org/1999/xlink" x="0px" y="0px"
	 viewBox="0 0 1920 2009.5" style="enable-background:new 0 0 1920 2009.5;" xml:space="preserve">
<style type="text/css">
	.st0{fill:none;stroke:#000000;stroke-width:0.25;stroke-miterlimit:10;}
	.st1{fill:#DF6148;}
	.st2{fill:#C85347;}
</style>
<path class="st0" d="M-857.79,939.54"/>
<path d="M-375.66,1174.83"/>
<rect class="st1" width="1920" height="2009.5"/>
<polygon class="st2" points="1647.85,196.26 1612.6,317.75 1534.68,460.62 1473.4,632.07 1444.88,775.07 1420.5,775.14 
	1420.5,195.5 "/>
<polygon class="st2" points="709.4,176.36 765.14,533.44 780.69,747.36 846.93,785.36 897.4,648.36 886.04,219.36 "/>
<polygon class="st2" points="83.25,42.19 240.5,103.92 176.43,255.72 28.48,389.67 -155.5,579.08 -76.58,378.02 "/>
<polyline class="st2" points="922.48,160.46 1133.97,166.03 1116.5,217.5 1057.5,270.5 1023.71,355.27 962.99,601.37 930.97,600.03 
	922.48,160.46 "/>
<polyline class="st2" points="1199.27,171.5 1410.76,177.07 1393.29,228.54 1334.29,281.54 1300.5,366.31 1239.78,612.41 
	1207.76,611.07 1199.27,171.5 "/>
</svg>
