<?xml version="1.0" encoding="utf-8"?>
<!-- Generator: Adobe Illustrator 28.0.0, SVG Export Plug-In . SVG Version: 6.00 Build 0)  -->
<svg version="1.1" id="Layer_1" xmlns="http://www.w3.org/2000/svg" xmlns:xlink="http://www.w3.org/1999/xlink" x="0px" y="0px"
	 viewBox="0 0 2458.37 1525" style="enable-background:new 0 0 2458.37 1525;" xml:space="preserve">
<style type="text/css">
	.st0{fill:#1F1F1F;}
	.st1{fill:#C7452E;}
	.st2{clip-path:url(#SVGID_00000021079003430246819400000008284950543086907828_);}
	.st3{fill:#353435;}
	.st4{fill:#0D0D0D;}
	.st5{display:none;fill:#ACC2E8;}
	.st6{fill:#40322D;}
	.st7{fill:#C95E3A;}
</style>
<g>
	<rect y="889.5" class="st0" width="1923" height="386"/>
	<polygon class="st1" points="1347.74,1277.5 817.63,1277.5 930.26,888.5 1460.36,888.5 	"/>
	<rect x="922" y="888.5" class="st1" width="517" height="34"/>
	<g>
		<defs>
			<rect id="SVGID_1_" x="1.5" width="1920" height="1352.5"/>
		</defs>
		<clipPath id="SVGID_00000183232933513722676220000017746270802552638133_">
			<use xlink:href="#SVGID_1_"  style="overflow:visible;"/>
		</clipPath>
		<g style="clip-path:url(#SVGID_00000183232933513722676220000017746270802552638133_);">
			<rect y="-100.5" class="st0" width="1922" height="193"/>
			<g>
				<g>
					<g>
						<path class="st3" d="M2312.55,807.04h-770.89V177.51h770.89V807.04z M1577.65,771.04h698.89V213.51h-698.89V771.04z"/>
					</g>
					<polyline class="st4" points="1531.75,187.73 2319.87,187.73 2313.06,130.64 1534.87,130.64 1534.87,187.73 					"/>
					<rect x="1530.65" y="804.6" class="st3" width="801" height="106.88"/>
					<polygon class="st0" points="1575.65,822.04 1620.1,793.19 2232.34,795.13 2273.65,843.14 2274.65,882.69 2226.65,890.6 
						1609.65,878.74 1574.65,861.6 					"/>
					<polygon class="st3" points="1609.65,820.17 1642.65,812.9 2213.65,810.83 2246.65,843 2248.65,867.9 2105.65,874.12 
						1628.65,865.82 1604.65,847.15 					"/>
				</g>
				<g>
					<g>
						<path class="st3" d="M810.01,803.45H39.12V173.92h770.89V803.45z M75.12,767.45h698.89V209.92H75.12V767.45z"/>
					</g>
					<polyline class="st4" points="29.21,184.15 817.33,184.15 810.53,134.22 32.33,134.22 32.33,184.15 					"/>
					<rect x="28.12" y="801.02" class="st3" width="801" height="106.88"/>
					<polygon class="st0" points="73.12,818.46 117.56,789.6 729.8,791.55 771.12,839.55 772.12,879.11 724.12,887.02 
						107.12,875.15 72.12,858.01 					"/>
					<polygon class="st3" points="107.12,816.58 140.12,809.32 711.12,807.24 744.12,839.41 746.12,864.32 603.12,870.54 
						126.12,862.24 102.12,843.56 					"/>
				</g>
				<g>
					<g>
						<g>
							<g>
								<rect x="929.73" y="167.7" class="st4" width="205" height="7"/>
								<rect x="928.73" y="321.7" class="st4" width="205" height="7"/>
								<rect x="929.73" y="462.7" class="st4" width="205" height="7"/>
								
									<rect x="817.23" y="382.2" transform="matrix(-1.836970e-16 1 -1 -1.836970e-16 1427.9363 -656.5329)" class="st4" width="450" height="7"/>
								
									<rect x="708.23" y="390.2" transform="matrix(-1.836970e-16 1 -1 -1.836970e-16 1326.9363 -539.5329)" class="st4" width="450" height="7"/>
								<path class="st0" d="M895.73,137.7v765h283v-765H895.73z M1133.47,308.03h-94v-140h94V308.03z M930.47,168.03h94v140h-94
									V168.03z M930.47,322.03h94v127h-94V322.03z M930.47,463.03h94v139h-94V463.03z M1133.47,602.03h-94v-139h94V602.03z
									 M1133.47,449.03h-94v-127h94V449.03z"/>
							</g>
							<g>
								<polygon class="st3" points="936.74,668.91 953.65,690.21 1138.74,690.21 1138.74,668.91 								"/>
								<g>
									<polygon class="st4" points="1139.56,836.91 1122.66,815.62 937.56,815.62 937.56,836.91 									"/>
									<polygon class="st4" points="1122.66,815.62 1122.66,690.26 1139.56,669.04 1139.56,836.91 									"/>
								</g>
								<polygon class="st3" points="953.65,690.21 953.65,815.94 936.74,836.79 936.74,668.91 								"/>
							</g>
						</g>
						<g>
							<g>
								<rect x="1212.4" y="167.7" class="st4" width="205" height="7"/>
								<rect x="1211.4" y="321.7" class="st4" width="205" height="7"/>
								<rect x="1212.4" y="462.7" class="st4" width="205" height="7"/>
								
									<rect x="1099.9" y="382.2" transform="matrix(-1.836970e-16 1 -1 -1.836970e-16 1710.5978 -939.1943)" class="st4" width="450" height="7"/>
								
									<rect x="990.9" y="390.2" transform="matrix(-1.836970e-16 1 -1 -1.836970e-16 1609.5978 -822.1943)" class="st4" width="450" height="7"/>
								<path class="st0" d="M1178.4,137.7v765h283v-765H1178.4z M1416.14,308.03h-94v-140h94V308.03z M1213.14,168.03h94v140h-94
									V168.03z M1213.14,322.03h94v127h-94V322.03z M1213.14,463.03h94v139h-94V463.03z M1416.14,602.03h-94v-139h94V602.03z
									 M1416.14,449.03h-94v-127h94V449.03z"/>
							</g>
							<g>
								<polygon class="st3" points="1219.41,668.91 1236.31,690.21 1421.41,690.21 1421.41,668.91 								"/>
								<g>
									<polygon class="st4" points="1422.22,836.91 1405.32,815.62 1220.22,815.62 1220.22,836.91 									"/>
									<polygon class="st4" points="1405.32,815.62 1405.32,690.26 1422.22,669.04 1422.22,836.91 									"/>
								</g>
								<polygon class="st3" points="1236.31,690.21 1236.31,815.94 1219.41,836.79 1219.41,668.91 								"/>
							</g>
						</g>
					</g>
					<g>
						<g>
							<rect x="1440.79" y="153.15" class="st0" width="109" height="762.06"/>
							<polygon class="st3" points="1464.79,202.06 1475.79,176.63 1518.79,175.65 1526.79,206.96 1528.79,850.65 1517.79,882.93 
								1477.79,885.86 1465.79,854.56 							"/>
							<polyline class="st0" points="1493.07,187.39 1477.75,210.87 1484.45,290.11 1494.03,421.19 1478.71,526.84 1476.79,660.87 
								1478.71,794.89 1480.62,848.69 1491.15,868.26 1516.05,859.45 1521.79,609.02 1513.18,406.52 1504.56,267.61 1515.09,220.65 
															"/>
						</g>
						<polygon class="st4" points="1437.46,137.5 1579.75,138.03 1568.16,170.76 1451.7,166.31 1437.79,162.46 						"/>
						<polygon class="st4" points="1565.96,923.03 1422,922.5 1430,889.77 1551.73,894.22 1565.63,898.07 						"/>
					</g>
					<g>
						<g>
							
								<rect x="809.98" y="153.15" transform="matrix(-1 -4.392276e-11 4.392276e-11 -1 1728.9545 1068.3633)" class="st0" width="109" height="762.06"/>
							<polygon class="st3" points="894.98,202.06 883.98,176.63 840.98,175.65 832.98,206.96 830.98,850.65 841.98,882.93 
								881.98,885.86 893.98,854.56 							"/>
							<polyline class="st0" points="866.7,187.39 882.02,210.87 875.32,290.11 865.74,421.19 881.06,526.84 882.98,660.87 
								881.06,794.89 879.15,848.69 868.62,868.26 843.72,859.45 837.98,609.02 846.59,406.52 855.21,267.61 844.68,220.65 							
								"/>
						</g>
						<polygon class="st4" points="922.31,137.5 780.02,138.03 791.61,170.76 908.07,166.31 921.98,162.46 						"/>
						<polygon class="st4" points="791.65,922.06 936,922.5 927.52,893.98 805.88,893.25 791.98,897.1 						"/>
					</g>
					<polygon class="st4" points="1173.9,153.49 1192.02,623.43 1189.66,865.49 1178.06,862.23 1171.54,403.65 1166.02,156.53 					
						"/>
				</g>
				<g>
					<g>
						
							<rect x="-4.95" y="150.13" transform="matrix(-1 -6.553304e-11 6.553304e-11 -1 63.0383 1061.3267)" class="st0" width="72.95" height="761.06"/>
						<polygon class="st3" points="51.93,198.98 44.57,173.58 15.79,172.6 10.44,203.87 9.1,846.71 16.46,878.95 43.23,881.89 
							51.26,850.62 						"/>
						<polyline class="st0" points="33.01,184.33 43.26,207.77 38.77,286.91 32.37,417.82 42.62,523.34 43.9,657.18 42.62,791.03 
							41.34,844.76 34.29,864.3 17.63,855.51 13.78,605.4 19.55,403.17 25.32,264.44 18.27,217.54 						"/>
					</g>
					<polygon class="st4" points="70.22,134.5 -25,135.03 -17.25,167.72 60.69,163.27 70,159.42 					"/>
					<polygon class="st4" points="-17.22,918.03 78,917.51 70.25,884.82 -7.69,889.27 -17,893.11 					"/>
				</g>
				<rect x="-54.37" y="85.61" class="st3" width="2458.37" height="52.89"/>
			</g>
			<rect x="51.5" y="-93.5" class="st4" width="1820" height="153"/>
			<path class="st5" d="M-0.5-97.5v1464h1924v-1464H-0.5z M773,767.5H76v-558h697V767.5z M1025,602.5h-88v-133h88V602.5z
				 M1025,449.5h-88v-121h88V449.5z M1025,308.5h-88v-135h88V308.5z M1133,602.5h-87v-133h87V602.5z M1133,449.5h-87v-121h87V449.5z
				 M1133,308.5h-87v-134h87V308.5z M1307,602.5h-88v-133h88V602.5z M1307,449.5h-88v-121h88V449.5z M1307,308.5h-88v-135h88V308.5z
				 M1415,602.5h-87v-133h87V602.5z M1415,449.5h-87v-121h87V449.5z M1415,308.5h-87v-134h87V308.5z M1923,771.5h-345v-558h345
				V771.5z"/>
			<polygon class="st6" points="647,1274.84 -46,1274.84 67.64,986.5 759.02,986.5 			"/>
			<polygon class="st6" points="2126.85,1275.5 1483,1287.5 1572.82,987.16 2264.2,987.16 			"/>
			<g>
				<polygon class="st7" points="1257.01,1127.5 1163.01,1127.5 1207.62,987.5 1301.62,987.5 				"/>
				<polygon class="st7" points="1366.01,1127.5 1272.01,1127.5 1316.62,987.5 1410.62,987.5 				"/>
				<polygon class="st7" points="1211.77,1269.5 1117.77,1269.5 1158.23,1142.5 1252.23,1142.5 				"/>
				<polygon class="st7" points="1320.77,1269.5 1226.77,1269.5 1267.23,1142.5 1361.23,1142.5 				"/>
			</g>
			<g>
				<polygon class="st7" points="981.55,1125.5 887.55,1125.5 932.16,985.5 1026.16,985.5 				"/>
				<polygon class="st7" points="1090.55,1125.5 996.55,1125.5 1041.16,985.5 1135.16,985.5 				"/>
				<polygon class="st7" points="936.3,1267.5 842.3,1267.5 882.77,1140.5 976.77,1140.5 				"/>
				<polygon class="st7" points="1045.3,1267.5 951.3,1267.5 991.77,1140.5 1085.77,1140.5 				"/>
			</g>
		</g>
	</g>
</g>
</svg>
