<?xml version="1.0" encoding="utf-8"?>
<!-- Generator: Adobe Illustrator 28.0.0, SVG Export Plug-In . SVG Version: 6.00 Build 0)  -->
<svg version="1.1" id="Layer_1" xmlns="http://www.w3.org/2000/svg" xmlns:xlink="http://www.w3.org/1999/xlink" x="0px" y="0px"
	 viewBox="0 0 1944 852.98" style="enable-background:new 0 0 1944 852.98;" xml:space="preserve">
<polygon points="1944,69.5 1907.22,68 1847.22,72 1821.22,45 1808.22,19 1781.22,22 1781.22,52 1744.22,54 1735.22,39 1728.22,22 
	1707.22,21 1702.22,2 1665.22,0 1647.22,19 1630.22,48 1602.22,33 1542.22,13 1517.22,4 1485.22,21 1484.22,60 1461.22,40 
	1423.22,75 1400.22,81 1392,89 1392,108.98 1386.2,108.98 1385,101.59 1355,66.59 1299.76,93.26 1300,57.59 1268,57.59 
	1261.83,79.15 1248.6,50.92 1184,49.59 1184,38.59 1147,46.59 1106,29.59 1069.53,29.75 1066.89,57.1 1048,57.59 1036.01,80.03 
	1014,99.59 1014.44,108.98 953.77,108.98 949.02,103.12 910,57.59 888,44.59 863.06,54.84 868.94,79.57 816,71.59 815,52.59 
	768,52.59 741,27.59 714,17.59 679.35,30.11 696,55.59 665.22,77.21 644,60.59 630,66.59 653,92.59 642.57,108.98 627.28,108.98 
	575.73,84.28 566,70.59 517,68.59 457,72.59 431,45.59 418,19.59 391,22.59 391,52.59 354,54.59 345,39.59 338,22.59 317,21.59 
	312,2.59 275,0.59 257,19.59 240,48.59 212,33.59 152,13.59 127,4.59 95,21.59 94,60.59 71,40.59 33,75.59 10,81.59 0,91.33 
	0,228.59 5,228.59 5,852.98 1943,852.98 1943,228.59 1944,228.59 "/>
</svg>
