<?xml version="1.0" encoding="utf-8"?>
<!-- Generator: Adobe Illustrator 28.0.0, SVG Export Plug-In . SVG Version: 6.00 Build 0)  -->
<svg version="1.1" id="Layer_1" xmlns="http://www.w3.org/2000/svg" xmlns:xlink="http://www.w3.org/1999/xlink" x="0px" y="0px"
	 viewBox="0 0 1809.17 522.21" style="enable-background:new 0 0 1809.17 522.21;" xml:space="preserve">
<style type="text/css">
	.st0{fill:#AD392B;}
	.st1{fill:#E36046;}
</style>
<g>
	<polygon class="st0" points="1556.87,199.34 1527.74,261.25 1504.68,292.81 1476.77,283.1 1471.91,212.7 1487.69,183.57 
		1486.48,161.72 1441.57,145.94 1428.21,178.71 1443.99,209.05 1449.94,247.3 1451.28,303.73 1471.91,326.79 1515.61,338.93 
		1563.66,266.25 1592.07,226.05 1582.36,202.99 	"/>
	<polygon class="st0" points="1727.08,476.29 1658.65,377.63 1659.66,363.45 1704.23,338.13 1730.57,287.48 1699.17,233.79 
		1662.7,187.19 1631.3,176.05 1633.32,143.64 1648.52,148.7 1691.06,144.65 1708.28,134.52 1671.82,119.32 1663.71,61.58 
		1649.12,7.57 1579.94,3.93 1552.02,40.34 1543.52,102.24 1548.38,126.52 1521.68,132.59 1538.67,148.37 1570.23,161.72 
		1601.78,154.43 1600.57,178.71 1556.88,199.34 1566.59,301.3 1573.87,376.56 1458.56,514.93 1697.67,522.21 1809.17,512.13 
		1806.6,461.16 	"/>
	<polygon class="st1" points="1589.55,125.1 1601.46,122.76 1608.62,115.16 1607.22,108.02 1581.5,109.37 1579.34,117.22 	"/>
	<g>
		<g>
			<polygon class="st0" points="134.75,26.93 175.76,0 242.38,7.41 248.41,40.94 373.79,26.93 336.29,51.71 262.47,60.33 
				28.12,80.79 0,29.09 41.01,40.94 			"/>
			<polygon class="st0" points="237.86,85.1 228.25,141.24 206.88,144.16 178.76,148 158.19,150.81 128.89,129.27 103.11,70.02 
				210.91,43.09 			"/>
			<polygon class="st0" points="226.17,168.18 300.25,192.26 281,238.86 249.6,308.75 180.47,354.54 96.79,332.56 79.38,222.54 
				93.76,184.34 			"/>
			<path class="st0" d="M183.96,186.36l-11.72-53.86c0,0,28.03-2.23,27.49-2.73c-0.54-0.5,18.89,51.94,18.89,51.94L183.96,186.36z"
				/>
			<polygon class="st1" points="187.87,127.09 165.11,130.67 167.14,134.73 203.61,130.67 202.59,126.62 			"/>
		</g>
		<polygon class="st0" points="111.43,309.97 241.09,315.43 213.74,497.86 126.62,502.23 105.9,332.15 		"/>
	</g>
</g>
</svg>
