<?xml version="1.0" encoding="utf-8"?>
<!-- Generator: Adobe Illustrator 28.0.0, SVG Export Plug-In . SVG Version: 6.00 Build 0)  -->
<svg version="1.1" id="Layer_1" xmlns="http://www.w3.org/2000/svg" xmlns:xlink="http://www.w3.org/1999/xlink" x="0px" y="0px"
	 viewBox="0 0 841.89 595.28" style="enable-background:new 0 0 841.89 595.28;" xml:space="preserve">
<style type="text/css">
	.st0{fill:#AD3C30;}
	.st1{fill:#882D25;}
	.st2{fill:#76241E;}
</style>
<g>
	<polyline class="st0" points="15.38,545.91 54.08,584.61 54.45,584.63 787.81,584.63 826.51,545.94 826.51,49.34 787.81,10.65 
		54.1,10.65 15.41,49.34 	"/>
	<polyline class="st1" points="56.56,516.69 91.32,550.83 91.58,550.85 750.57,550.85 785.33,516.71 785.33,78.56 750.57,44.42 
		91.34,44.42 56.58,78.56 	"/>
	<g>
		<g>
			<path class="st2" d="M503.84,133.9c-0.37-0.39-0.72-0.73-1.03-1.1c-1.27-1.55-2.51-3.12-3.77-4.68c-1.09-1.35-2.18-2.7-3.29-4.04
				c-1.12-1.35-2.28-2.68-3.42-4.01c-0.91-1.06-1.8-2.14-2.73-3.18c-0.48-0.54-1.03-1.01-1.52-1.53c-1.17-1.22-2.39-2.38-3.71-3.44
				c-0.3-0.24-0.56-0.34-0.92-0.25c-1.07,0.27-2.14,0.54-3.21,0.81c-0.87,0.22-1.75,0.43-2.62,0.65c-1.46,0.37-2.92,0.74-4.39,1.1
				c-1.31,0.32-2.63,0.62-3.94,0.93c-1.23,0.29-2.45,0.59-3.68,0.87c-0.99,0.23-1.98,0.43-2.97,0.65c-0.63,0.14-1.07,0.41-1.25,1.13
				c-0.49,1.9-1.05,3.78-1.58,5.66c-0.48,1.69-0.95,3.38-1.43,5.07c-0.41,1.45-0.82,2.9-1.25,4.35c-0.23,0.77-0.54,1.52-0.76,2.29
				c-0.33,1.19-0.63,2.4-0.9,3.6c-0.04,0.18,0.04,0.46,0.17,0.6c0.24,0.26,0.52,0.54,0.84,0.67c0.9,0.38,1.55,1.08,2.27,1.68
				c0.55,0.46,1.1,0.92,1.63,1.41c0.62,0.56,1.21,1.14,1.82,1.71c0.36,0.34,0.73,0.68,1.1,1c2.18,1.89,4.36,3.78,6.55,5.64
				c1.25,1.06,2.54,2.08,3.8,3.14c0.38,0.32,0.73,0.68,1.05,1.05c0.11,0.13,0.16,0.38,0.12,0.55c-0.07,0.26-0.31,0.2-0.51,0.14
				c-0.37-0.1-0.74-0.19-1.11-0.3c-2.51-0.73-5.04-1.4-7.53-2.2c-1.71-0.55-3.37-1.27-5.05-1.92c-1.05-0.41-2.1-0.83-3.13-1.27
				c-0.99-0.42-1.97-0.88-2.96-1.33c-1-0.46-2.01-0.9-3.01-1.37c-1.42-0.67-2.92-1.17-4.25-2.04c-0.73-0.48-1.52-0.88-2.3-1.29
				c-0.15-0.08-0.34-0.08-0.51-0.1c-0.39-0.05-0.47-0.15-0.45-0.51c0.02-0.47,0.04-0.94,0.06-1.41c0.01-0.16,0.03-0.31,0.08-0.46
				c0.26-0.86,0.55-1.72,0.78-2.59c0.17-0.65,0.25-1.33,0.41-1.98c0.38-1.5,0.81-3,1.18-4.5c0.49-1.96,1.22-3.86,1.5-5.89
				c0.21-1.47,0.51-2.93,0.89-4.37c0.39-1.45,0.93-2.86,1.39-4.3c0.17-0.51,0.34-1.03,0.43-1.56c0.19-1.15,0.24-2.33,0.5-3.47
				c0.3-1.28,0.01-2.46-0.39-3.63c-0.52-1.51-1.15-2.98-1.7-4.48c-0.37-1.01-0.69-2.05-1.03-3.07c-0.04-0.11-0.05-0.22-0.06-0.33
				c-0.04-0.29-0.12-0.63,0.17-0.81c0.31-0.19,0.52,0.12,0.76,0.27c0.35,0.2,0.71,0.39,1.09,0.52c0.84,0.3,1.57,0.76,2.27,1.3
				c1.29,0.98,2.58,1.97,4.03,2.72c0.1,0.05,0.22,0.08,0.3,0.16c0.67,0.62,1.44,0.5,2.22,0.29c1.89-0.5,3.79-0.99,5.68-1.49
				c1.83-0.48,3.65-0.98,5.48-1.46c1.35-0.35,2.71-0.67,4.06-1.02c0.67-0.17,1.33-0.39,2-0.57c0.68-0.18,1.36-0.33,2.03-0.5
				c1.76-0.45,3.53-0.9,5.29-1.35c1.46-0.37,2.92-0.73,4.38-1.11c0.19-0.05,0.37-0.17,0.53-0.28c0.37-0.25,0.61-0.24,0.86,0.1
				c0.97,1.31,1.8,2.69,2.23,4.29c0.46,1.72,1.19,3.35,1.99,4.95c0.71,1.4,1.34,2.85,1.95,4.3c1.09,2.55,2.13,5.12,3.21,7.67
				c0.62,1.45,1.31,2.87,1.9,4.33c0.46,1.13,0.8,2.3,1.23,3.44c0.68,1.77,1.39,3.52,2.1,5.27
				C503.94,133.27,504.09,133.51,503.84,133.9z"/>
			<path class="st2" d="M337.96,133.89c-0.02-0.2-0.07-0.33-0.04-0.44c0.08-0.3,0.17-0.61,0.31-0.89c0.92-1.84,1.58-3.78,2.23-5.72
				c0.75-2.22,1.65-4.38,2.69-6.49c0.46-0.93,0.81-1.91,1.2-2.87c0.46-1.13,0.88-2.27,1.35-3.39c0.56-1.33,1.16-2.64,1.76-3.95
				c0.48-1.04,0.98-2.08,1.49-3.1c0.73-1.46,1.21-3.01,1.71-4.55c0.36-1.12,0.85-2.18,1.63-3.09c0.13-0.15,0.22-0.34,0.34-0.5
				c0.3-0.42,0.52-0.45,0.94-0.17c0.15,0.1,0.31,0.19,0.48,0.24c0.43,0.12,0.87,0.21,1.31,0.32c1.96,0.51,3.92,1.03,5.88,1.53
				c1.35,0.34,2.71,0.64,4.06,0.99c1.65,0.43,3.3,0.9,4.95,1.34c0.89,0.24,1.79,0.45,2.68,0.68c2.4,0.63,4.79,1.26,7.19,1.88
				c1.22,0.31,2.45,0.59,3.67,0.9c0.41,0.11,0.74-0.02,1.09-0.2c1.86-0.98,3.53-2.26,5.22-3.49c0.5-0.37,1.1-0.61,1.65-0.9
				c0.44-0.23,0.87-0.46,1.32-0.67c0.19-0.08,0.48-0.19,0.61-0.11c0.14,0.09,0.23,0.39,0.21,0.59c-0.04,0.42-0.12,0.86-0.27,1.25
				c-0.55,1.45-1.15,2.89-1.7,4.34c-0.36,0.95-0.66,1.92-0.97,2.88c-0.33,1.03-0.54,2.06-0.28,3.17c0.19,0.8,0.13,1.66,0.28,2.47
				c0.16,0.86,0.38,1.72,0.69,2.54c0.67,1.78,1.21,3.59,1.61,5.44c0.32,1.5,0.53,3.02,0.85,4.51c0.21,0.97,0.52,1.91,0.79,2.87
				c0.47,1.65,0.94,3.29,1.4,4.95c0.13,0.48,0.24,0.97,0.3,1.46c0.2,1.46,0.65,2.85,1.09,4.25c0.1,0.31,0.07,0.66,0.1,0.99
				c0.03,0.31,0.06,0.62,0.1,0.93c0.08,0.52,0.03,0.58-0.47,0.67c-0.17,0.03-0.35,0.07-0.51,0.16c-1.3,0.71-2.6,1.45-3.9,2.16
				c-0.37,0.2-0.77,0.38-1.17,0.53c-1.82,0.67-3.55,1.54-5.3,2.38c-1.38,0.66-2.81,1.23-4.23,1.81c-1.79,0.73-3.59,1.46-5.41,2.11
				c-1.32,0.47-2.68,0.79-4.02,1.19c-1.58,0.46-3.15,0.94-4.73,1.4c-0.24,0.07-0.48,0.14-0.72,0.16c-0.34,0.04-0.51-0.21-0.36-0.51
				c0.08-0.16,0.21-0.3,0.34-0.41c0.86-0.76,1.72-1.52,2.59-2.27c1.63-1.39,3.28-2.75,4.91-4.14c1.5-1.29,2.99-2.61,4.46-3.93
				c1.56-1.4,3.1-2.82,4.66-4.22c0.3-0.27,0.63-0.55,1-0.67c0.48-0.16,0.77-0.54,1.17-0.78c0.28-0.17,0.33-0.4,0.26-0.7
				c-0.13-0.52-0.24-1.05-0.39-1.58c-0.31-1.13-0.64-2.25-0.97-3.38c-0.51-1.73-1.04-3.45-1.54-5.18c-0.56-1.95-1.1-3.9-1.66-5.85
				c-0.34-1.19-0.7-2.38-1.04-3.57c-0.13-0.45-0.28-0.91-0.36-1.37c-0.13-0.7-0.57-1.03-1.22-1.17c-1.08-0.23-2.15-0.47-3.23-0.72
				c-1.1-0.25-2.19-0.53-3.28-0.78c-0.63-0.15-1.27-0.29-1.91-0.43c-0.72-0.17-1.44-0.34-2.17-0.52c-1.03-0.25-2.06-0.49-3.09-0.75
				c-0.94-0.23-1.88-0.48-2.82-0.72c-1.42-0.36-2.84-0.69-4.25-1.1c-0.6-0.17-0.88,0.16-1.28,0.47c-1.6,1.23-2.98,2.69-4.36,4.14
				c-1.47,1.55-2.85,3.2-4.24,4.82c-1.18,1.37-2.34,2.74-3.48,4.14c-1.27,1.55-2.51,3.13-3.77,4.69c-1.02,1.26-2.05,2.51-3.08,3.75
				C338.27,133.76,338.13,133.8,337.96,133.89z"/>
			<path class="st2" d="M438.67,86.27c-0.23-0.14-0.39-0.27-0.58-0.34c-0.82-0.31-1.65-0.59-2.48-0.9c-0.8-0.3-1.6-0.62-2.4-0.93
				c-1.47-0.56-2.94-1.13-4.41-1.69c-0.55-0.21-1.1-0.41-1.65-0.6c-0.11-0.04-0.23-0.11-0.32-0.08c-0.81,0.19-1.11-0.44-1.45-0.94
				c-0.9-1.35-1.78-2.71-2.65-4.08c-0.49-0.78-0.96-1.58-1.44-2.37c-0.07-0.11-0.17-0.2-0.31-0.38c-0.16,0.16-0.31,0.28-0.41,0.44
				c-0.82,1.3-1.61,2.61-2.44,3.9c-0.64,1.01-1.33,1.99-1.98,2.99c-0.19,0.29-0.39,0.44-0.76,0.43c-0.33-0.01-0.67,0.09-0.98,0.21
				c-1.56,0.59-3.11,1.2-4.67,1.79c-1.28,0.48-2.58,0.94-3.86,1.42c-0.7,0.26-1.39,0.52-2.08,0.79c-0.47,0.19-0.54,0.34-0.41,0.84
				c0.15,0.59,0.33,1.17,0.49,1.75c0.39,1.41,0.77,2.83,1.15,4.24c0.08,0.28,0.11,0.57,0.17,0.86c0.06,0.31-0.04,0.58-0.25,0.81
				c-0.51,0.55-1,1.1-1.51,1.64c-1.37,1.46-2.75,2.92-4.13,4.37c-0.56,0.59-1.13,1.16-1.7,1.73c-0.16,0.16-0.34,0.33-0.54,0.4
				c-0.19,0.07-0.45,0.06-0.64-0.01c-0.24-0.1-0.22-0.37-0.17-0.6c0.06-0.24,0.13-0.48,0.21-0.71c0.29-0.8,0.6-1.6,0.9-2.4
				c0.22-0.59,0.44-1.18,0.67-1.77c0.4-1.03,0.81-2.05,1.23-3.07c0.1-0.24,0.03-0.41-0.08-0.62c-1.02-1.96-2.04-3.92-3.03-5.89
				c-0.53-1.05-1.01-2.12-1.52-3.17c-0.06-0.12-0.12-0.24-0.21-0.34c-0.41-0.47-0.42-0.47-0.11-1.02c0.69-1.21,1.4-2.42,2.08-3.63
				c0.42-0.74,0.82-1.5,1.23-2.25c0.21-0.39,0.46-0.66,0.94-0.79c0.73-0.2,1.43-0.54,2.14-0.82c1.06-0.42,2.13-0.85,3.19-1.28
				c1.31-0.53,2.62-1.07,3.94-1.59c0.77-0.31,1.56-0.59,2.33-0.91c0.3-0.13,0.6-0.31,0.84-0.53c0.4-0.39,0.76-0.83,1.13-1.26
				c2.17-2.56,4.34-5.12,6.51-7.68c0.41-0.48,0.84-0.94,1.29-1.39c0.74-0.75,1.38-0.76,2.09,0c0.86,0.92,1.69,1.88,2.52,2.83
				c0.98,1.12,1.95,2.24,2.92,3.38c0.73,0.86,1.43,1.74,2.15,2.6c0.46,0.55,0.94,1.1,1.43,1.63c0.15,0.16,0.36,0.28,0.56,0.36
				c1.17,0.47,2.35,0.92,3.52,1.4c1.5,0.6,2.98,1.23,4.48,1.84c1.17,0.47,2.35,0.92,3.52,1.37c0.1,0.04,0.21,0.11,0.32,0.11
				c0.41-0.01,0.6,0.25,0.77,0.56c0.85,1.54,1.7,3.07,2.55,4.61c0.31,0.55,0.62,1.1,0.96,1.63c0.2,0.32,0.21,0.56-0.13,0.81
				c-0.17,0.12-0.27,0.35-0.37,0.55c-0.98,2.01-1.94,4.02-2.93,6.02c-0.47,0.95-0.98,1.88-1.5,2.8c-0.17,0.31-0.18,0.55-0.04,0.88
				c0.71,1.75,1.4,3.52,2.08,5.28c0.29,0.76,0.55,1.53,0.8,2.3c0.08,0.26,0.26,0.59-0.07,0.8c-0.3,0.19-0.63,0.12-0.88-0.11
				c-0.35-0.31-0.68-0.65-1.01-0.99c-2.14-2.23-4.26-4.47-6.41-6.69c-0.44-0.45-0.61-0.91-0.45-1.52c0.33-1.22,0.63-2.44,0.95-3.66
				C438.04,88.5,438.35,87.42,438.67,86.27z"/>
			<path class="st2" d="M411.59,103.75c0.21,0.16,0.44,0.28,0.61,0.46c1.1,1.16,2.19,2.33,3.28,3.51c1.29,1.39,2.57,2.78,3.84,4.17
				c0.41,0.45,0.78,0.94,1.19,1.38c0.38,0.4,0.5,0.4,0.87,0c0.83-0.89,1.63-1.8,2.45-2.7c0.94-1.03,1.88-2.06,2.82-3.1
				c0.73-0.8,1.45-1.6,2.19-2.4c0.34-0.36,0.68-0.72,1.04-1.06c0.13-0.12,0.34-0.16,0.55-0.26c0.32,1.39,1.02,2.53,1.53,3.75
				c0.46,1.1,0.95,2.19,1.41,3.29c0.58,1.39,1.13,2.8,1.73,4.19c0.28,0.64,0.29,1.1-0.26,1.68c-0.8,0.85-1.42,1.86-2.11,2.8
				c-0.73,1-1.46,2-2.2,2.99c-1.21,1.62-2.4,3.26-3.64,4.86c-1.65,2.14-3.34,4.25-5.01,6.38c-0.14,0.18-0.25,0.38-0.37,0.56
				c-0.3,0.46-0.77,0.47-1.09,0.05c-1.19-1.55-2.39-3.09-3.58-4.65c-1.15-1.5-2.29-3.01-3.43-4.52c-1.85-2.47-3.7-4.94-5.55-7.4
				c-0.38-0.5-0.64-1.08-1.16-1.48c-0.14-0.11-0.13-0.56-0.05-0.81c0.23-0.71,0.51-1.4,0.8-2.08c1.07-2.51,2.16-5.01,3.24-7.51
				c0.02-0.04,0.03-0.08,0.05-0.13C411,105.12,411.27,104.51,411.59,103.75z"/>
			<path class="st2" d="M359.76,131.67c0.33-0.42,0.56-0.72,0.79-1.02c0.85-1.08,1.7-2.16,2.55-3.24c0.7-0.88,1.4-1.76,2.1-2.64
				c0.11-0.14,0.25-0.26,0.4-0.36c0.53-0.38,1.11-0.15,1.2,0.5c0.04,0.3-0.03,0.63-0.12,0.92c-0.34,1.07-0.75,2.12-1.05,3.21
				c-0.31,1.13-0.51,2.29-0.75,3.43c-0.02,0.08,0.01,0.17,0.03,0.35c0.51-0.05,0.99-0.08,1.47-0.16c1.31-0.22,2.62-0.44,3.93-0.68
				c0.28-0.05,0.57-0.14,0.83-0.27c0.62-0.31,1.2-0.16,1.74,0.15c0.53,0.31,0.62,0.74,0.29,1.26c-0.14,0.22-0.32,0.44-0.53,0.6
				c-1.16,0.9-2.34,1.77-3.49,2.67c-0.53,0.42-1.01,0.9-1.53,1.33c-0.57,0.47-1.17,0.91-1.75,1.37c-0.1,0.08-0.2,0.17-0.31,0.28
				c0.2,0.47,0.42,0.91,0.58,1.37c0.24,0.68,0.49,1.36,0.63,2.06c0.26,1.32,0.74,2.55,1.25,3.78c0.09,0.23,0.17,0.46,0.24,0.7
				c0.24,0.87-0.33,1.52-1.24,1.39c-0.69-0.1-1.27-0.47-1.8-0.88c-0.8-0.62-1.57-1.28-2.37-1.91c-0.21-0.17-0.43-0.31-0.69-0.49
				c-0.14,0.22-0.26,0.38-0.36,0.55c-0.4,0.76-0.76,1.54-1.21,2.27c-0.74,1.2-1.54,2.38-2.34,3.55c-0.15,0.21-0.37,0.4-0.6,0.52
				c-0.61,0.31-1.01,0.17-1.22-0.47c-0.21-0.66-0.39-1.35-0.43-2.04c-0.1-1.71-0.11-3.42-0.15-5.13c-0.01-0.22-0.03-0.44-0.05-0.72
				c-0.21,0.04-0.37,0.04-0.49,0.1c-1.11,0.55-2.24,1.06-3.31,1.69c-0.7,0.4-1.3,0.97-1.94,1.46c-0.11,0.08-0.2,0.18-0.31,0.26
				c-0.2,0.13-0.42,0.09-0.54-0.08c-0.09-0.12-0.16-0.35-0.1-0.47c0.58-1.37,1.14-2.75,1.8-4.07c0.5-1.01,1.13-1.95,1.74-2.9
				c0.43-0.68,0.43-0.74-0.36-1c-0.88-0.28-1.78-0.51-2.64-0.83c-0.78-0.29-1.51-0.68-2.27-1.03c-0.41-0.19-0.81-0.38-1.21-0.59
				c-0.21-0.11-0.44-0.23-0.59-0.41c-0.29-0.34-0.22-0.67,0.17-0.91c0.23-0.14,0.48-0.26,0.74-0.32c0.51-0.1,1.03-0.15,1.54-0.23
				c0.71-0.11,1.42-0.22,2.12-0.36c1.04-0.2,2.07-0.43,3.1-0.64c0.51-0.1,0.63-0.2,0.54-0.66c-0.34-1.8-0.11-3.6-0.03-5.4
				c0.01-0.32,0.02-0.63,0.05-0.95c0.02-0.22,0.04-0.45,0.11-0.66c0.18-0.53,0.53-0.68,1.06-0.49c0.56,0.19,0.93,0.61,1.31,1.03
				c1.21,1.36,2.02,2.98,2.97,4.51C359.36,131.17,359.54,131.37,359.76,131.67z"/>
			<path class="st2" d="M479.77,145.34c-0.3,0.2-0.49,0.31-0.67,0.45c-0.84,0.68-1.64,1.41-2.52,2.05
				c-0.48,0.35-1.06,0.59-1.62,0.78c-0.26,0.09-0.63-0.01-0.89-0.14c-0.51-0.25-0.64-0.65-0.44-1.19c0.31-0.84,0.68-1.67,0.97-2.52
				c0.3-0.9,0.51-1.82,0.79-2.73c0.22-0.71,0.46-1.41,0.74-2.09c0.22-0.55,0.22-0.6-0.23-0.95c-0.69-0.54-1.35-1.12-2.04-1.67
				c-0.97-0.77-1.95-1.53-2.92-2.3c-0.6-0.48-1.2-0.95-1.8-1.43c-0.35-0.28-0.63-0.62-0.55-1.09c0.08-0.49,0.46-0.76,0.91-0.91
				c0.44-0.14,0.87-0.21,1.29,0.09c0.14,0.1,0.32,0.18,0.49,0.21c1.82,0.3,3.64,0.59,5.47,0.87c0.04,0.01,0.09-0.02,0.22-0.05
				c0-0.17,0.03-0.36-0.01-0.54c-0.33-1.45-0.64-2.91-1.02-4.34c-0.2-0.76-0.54-1.48-0.8-2.22c-0.15-0.42-0.16-0.84,0.2-1.19
				c0.24-0.24,0.51-0.29,0.79-0.12c0.19,0.12,0.39,0.25,0.53,0.41c0.74,0.9,1.48,1.82,2.2,2.74c0.75,0.95,1.5,1.92,2.24,2.88
				c0.33,0.43,0.65,0.86,1.04,1.38c0.19-0.23,0.35-0.4,0.47-0.6c0.67-1.09,1.3-2.22,2.01-3.29c0.44-0.68,0.95-1.32,1.51-1.9
				c0.28-0.29,0.73-0.42,1.12-0.58c0.27-0.11,0.51,0.06,0.62,0.29c0.13,0.28,0.25,0.59,0.27,0.89c0.08,1.49,0.13,2.97,0.16,4.46
				c0.01,0.58-0.08,1.17-0.13,1.75c-0.05,0.66,0.03,0.74,0.65,0.85c0.42,0.07,0.82,0.2,1.24,0.28c0.77,0.15,1.54,0.28,2.32,0.41
				c0.73,0.13,1.46,0.26,2.19,0.38c0.22,0.04,0.45,0.04,0.67,0.1c0.3,0.08,0.6,0.18,0.88,0.31c0.26,0.12,0.5,0.33,0.4,0.63
				c-0.09,0.25-0.3,0.6-0.51,0.64c-0.87,0.19-1.53,0.76-2.29,1.14c-0.71,0.36-1.46,0.58-2.21,0.82c-0.69,0.21-1.38,0.41-2.07,0.64
				c-0.18,0.06-0.34,0.18-0.53,0.29c0.38,0.6,0.72,1.12,1.04,1.66c0.43,0.71,0.86,1.43,1.25,2.17c0.23,0.44,0.38,0.91,0.58,1.37
				c0.33,0.77,0.66,1.53,1,2.29c0.12,0.26,0.12,0.47-0.12,0.66c-0.23,0.18-0.41,0.09-0.6-0.07c-1.71-1.52-3.71-2.54-5.79-3.43
				c-0.02-0.01-0.04,0-0.14,0.02c-0.01,0.35-0.02,0.72-0.04,1.09c-0.02,0.38-0.07,0.76-0.08,1.14c-0.04,1.31-0.05,2.61-0.13,3.92
				c-0.03,0.56-0.18,1.11-0.34,1.65c-0.26,0.86-0.75,0.93-1.51,0.46c-0.22-0.13-0.38-0.39-0.54-0.6c-1.18-1.6-2.23-3.28-3.08-5.08
				C480.24,146.1,480.02,145.76,479.77,145.34z"/>
			<path class="st2" d="M412.41,131.21c-0.09,0.72-0.16,1.3-0.22,1.88c-0.17,1.48-0.32,2.95-0.5,4.43c-0.12,1-0.29,2-0.42,3.01
				c-0.14,1.05-0.28,2.1-0.39,3.15c-0.04,0.37-0.16,0.66-0.53,0.78c-0.37,0.12-0.59-0.13-0.8-0.37c-1.15-1.28-2.31-2.57-3.46-3.86
				c-0.98-1.11-1.96-2.23-2.92-3.36c-0.85-0.99-1.67-2-2.52-3c-0.26-0.3-0.33-0.59-0.2-0.99c0.37-1.13,0.7-2.28,1.04-3.42
				c0.38-1.3,0.72-2.6,1.13-3.89c0.41-1.31,0.87-2.61,1.34-3.9c0.23-0.63,0.6-0.67,1.02-0.13c1.71,2.18,3.43,4.35,5.14,6.53
				c0.68,0.87,1.35,1.74,2.02,2.62C412.27,130.88,412.36,131.11,412.41,131.21z"/>
			<path class="st2" d="M441.59,133.33c-0.11,0.19-0.22,0.43-0.39,0.63c-1.19,1.41-2.38,2.82-3.58,4.22
				c-0.41,0.48-0.86,0.92-1.28,1.39c-0.68,0.75-1.34,1.51-2.01,2.27c-0.54,0.6-1.09,1.19-1.63,1.79c-0.15,0.17-0.26,0.37-0.41,0.53
				c-0.19,0.2-0.4,0.4-0.7,0.31c-0.33-0.1-0.52-0.34-0.57-0.69c-0.14-1.16-0.28-2.32-0.43-3.49c-0.3-2.46-0.6-4.92-0.89-7.38
				c-0.06-0.49-0.21-0.99-0.15-1.47c0.05-0.42,0.27-0.86,0.53-1.2c1.42-1.83,2.88-3.63,4.32-5.45c0.85-1.08,1.69-2.16,2.54-3.24
				c0.4-0.51,0.81-0.45,1.03,0.16c0.9,2.48,1.76,4.97,2.42,7.52c0.26,1,0.6,1.98,0.89,2.97
				C441.39,132.55,441.48,132.9,441.59,133.33z"/>
			<path class="st2" d="M420.95,82.34c0.32-0.02,0.49,0.19,0.65,0.42c0.89,1.33,1.79,2.65,2.67,3.99c0.83,1.26,1.61,2.56,2.5,3.78
				c0.38,0.51,0.45,0.88,0.14,1.42c-0.71,1.25-1.38,2.53-2.07,3.79c-0.52,0.95-1.03,1.9-1.55,2.84c-0.35,0.63-0.71,1.26-1.09,1.87
				c-0.75,1.22-1.77,1.23-2.51-0.01c-0.76-1.28-1.49-2.58-2.22-3.88c-0.78-1.39-1.53-2.8-2.29-4.21c-0.05-0.1-0.1-0.21-0.15-0.3
				c-0.35-0.57-0.32-1,0.13-1.59c0.93-1.21,1.69-2.55,2.53-3.83c0.83-1.26,1.68-2.51,2.52-3.76
				C420.41,82.62,420.6,82.37,420.95,82.34z"/>
			<path class="st2" d="M429.38,153.74c-0.04,0.45-0.3,0.61-0.62,0.7c-0.68,0.17-1.35,0.34-2.04,0.5c-0.88,0.2-1.76,0.39-2.64,0.58
				c-0.29,0.06-0.49,0.21-0.59,0.49c-0.1,0.28-0.23,0.55-0.28,0.83c-0.22,1.11-0.53,2.19-1.05,3.2c-0.08,0.16-0.11,0.34-0.15,0.52
				c-0.03,0.11-0.02,0.23-0.05,0.33c-0.13,0.48-0.58,0.88-1,0.89c-0.38,0.01-0.84-0.36-0.99-0.81c-0.33-1-0.67-2-0.98-3.01
				c-0.17-0.56-0.31-1.13-0.45-1.69c-0.11-0.45-0.39-0.67-0.83-0.77c-1.43-0.31-2.86-0.65-4.28-0.98c-0.22-0.05-0.45-0.1-0.64-0.22
				c-0.36-0.21-0.38-0.61-0.03-0.81c0.48-0.28,0.99-0.55,1.52-0.7c0.95-0.28,1.77-0.76,2.57-1.32c0.57-0.4,0.72-1.02,0.88-1.61
				c0.32-1.2,0.56-2.41,0.88-3.61c0.37-1.4,0.98-2.71,1.64-4c0.07-0.14,0.17-0.27,0.28-0.38c0.3-0.29,0.59-0.28,0.88,0.01
				c0.09,0.09,0.19,0.2,0.24,0.32c0.64,1.41,1.37,2.78,1.69,4.33c0.29,1.38,0.71,2.74,1.1,4.1c0.07,0.24,0.25,0.47,0.44,0.65
				c0.73,0.69,1.63,1.11,2.57,1.45c0.57,0.2,1.11,0.47,1.66,0.73C429.24,153.51,429.32,153.66,429.38,153.74z"/>
		</g>
		<g>
			<polygon class="st2" points="602.6,119.31 508.84,85.11 457.96,96.51 467.41,80.12 524.1,77.27 568.44,92.95 			"/>
			<polygon class="st2" points="239.29,119.31 333.05,85.11 383.93,96.51 374.48,80.12 317.79,77.27 273.45,92.95 			"/>
		</g>
	</g>
	<g>
		<g>
			<path class="st2" d="M338.05,456.03c0.37,0.39,0.72,0.73,1.03,1.1c1.27,1.55,2.51,3.12,3.77,4.68c1.09,1.35,2.18,2.7,3.29,4.04
				c1.12,1.35,2.28,2.68,3.42,4.01c0.91,1.06,1.8,2.14,2.73,3.18c0.48,0.54,1.03,1.01,1.52,1.53c1.17,1.22,2.39,2.38,3.71,3.44
				c0.3,0.24,0.56,0.34,0.92,0.25c1.07-0.27,2.14-0.54,3.21-0.81c0.87-0.22,1.75-0.43,2.62-0.65c1.46-0.37,2.92-0.74,4.39-1.1
				c1.31-0.32,2.63-0.62,3.94-0.93c1.23-0.29,2.45-0.59,3.68-0.87c0.99-0.23,1.98-0.43,2.97-0.65c0.63-0.14,1.07-0.41,1.25-1.13
				c0.49-1.9,1.05-3.78,1.58-5.66c0.48-1.69,0.95-3.38,1.43-5.07c0.41-1.45,0.82-2.9,1.25-4.35c0.23-0.77,0.54-1.52,0.76-2.29
				c0.33-1.19,0.63-2.4,0.9-3.6c0.04-0.18-0.04-0.46-0.17-0.6c-0.24-0.26-0.52-0.54-0.84-0.67c-0.9-0.38-1.55-1.08-2.27-1.68
				c-0.55-0.46-1.1-0.92-1.63-1.41c-0.62-0.56-1.21-1.14-1.82-1.71c-0.36-0.34-0.73-0.68-1.1-1c-2.18-1.89-4.36-3.78-6.55-5.64
				c-1.25-1.06-2.54-2.08-3.8-3.14c-0.38-0.32-0.73-0.68-1.05-1.05c-0.11-0.13-0.16-0.38-0.12-0.55c0.07-0.26,0.31-0.2,0.51-0.14
				c0.37,0.1,0.74,0.19,1.11,0.3c2.51,0.73,5.04,1.4,7.53,2.2c1.71,0.55,3.37,1.27,5.05,1.92c1.05,0.41,2.1,0.83,3.13,1.27
				c0.99,0.42,1.97,0.88,2.96,1.33c1,0.46,2.01,0.9,3.01,1.37c1.42,0.67,2.92,1.17,4.25,2.04c0.73,0.48,1.52,0.88,2.3,1.29
				c0.15,0.08,0.34,0.08,0.51,0.1c0.39,0.05,0.47,0.15,0.45,0.51c-0.02,0.47-0.04,0.94-0.06,1.41c-0.01,0.16-0.03,0.31-0.08,0.46
				c-0.26,0.86-0.55,1.72-0.78,2.59c-0.17,0.65-0.25,1.33-0.41,1.98c-0.38,1.5-0.81,3-1.18,4.5c-0.49,1.96-1.22,3.86-1.5,5.89
				c-0.21,1.47-0.51,2.93-0.89,4.37c-0.39,1.45-0.93,2.86-1.39,4.3c-0.17,0.51-0.34,1.03-0.43,1.56c-0.19,1.15-0.24,2.33-0.5,3.47
				c-0.3,1.28-0.01,2.46,0.39,3.63c0.52,1.51,1.15,2.98,1.7,4.48c0.37,1.01,0.69,2.05,1.03,3.07c0.04,0.11,0.05,0.22,0.06,0.33
				c0.04,0.29,0.12,0.63-0.17,0.81c-0.31,0.19-0.52-0.12-0.76-0.27c-0.35-0.2-0.71-0.39-1.09-0.52c-0.84-0.3-1.57-0.76-2.27-1.3
				c-1.29-0.98-2.58-1.97-4.03-2.72c-0.1-0.05-0.22-0.08-0.3-0.16c-0.67-0.62-1.44-0.5-2.22-0.29c-1.89,0.5-3.79,0.99-5.68,1.49
				c-1.83,0.48-3.65,0.98-5.48,1.46c-1.35,0.35-2.71,0.67-4.06,1.02c-0.67,0.17-1.33,0.39-2,0.57c-0.68,0.18-1.36,0.33-2.03,0.5
				c-1.76,0.45-3.53,0.9-5.29,1.35c-1.46,0.37-2.92,0.73-4.38,1.11c-0.19,0.05-0.37,0.17-0.53,0.28c-0.37,0.25-0.61,0.24-0.86-0.1
				c-0.97-1.31-1.8-2.69-2.23-4.29c-0.46-1.72-1.19-3.35-1.99-4.95c-0.71-1.4-1.34-2.85-1.95-4.3c-1.09-2.55-2.13-5.12-3.21-7.67
				c-0.62-1.45-1.31-2.87-1.9-4.33c-0.46-1.13-0.8-2.3-1.23-3.44c-0.68-1.77-1.39-3.52-2.1-5.27
				C337.95,456.66,337.8,456.42,338.05,456.03z"/>
			<path class="st2" d="M503.93,456.04c0.02,0.2,0.07,0.33,0.04,0.44c-0.08,0.3-0.17,0.61-0.31,0.89c-0.92,1.84-1.58,3.78-2.23,5.72
				c-0.75,2.22-1.65,4.38-2.69,6.49c-0.46,0.93-0.81,1.91-1.2,2.87c-0.46,1.13-0.88,2.27-1.35,3.39c-0.56,1.33-1.16,2.64-1.76,3.95
				c-0.48,1.04-0.98,2.08-1.49,3.1c-0.73,1.46-1.21,3.01-1.71,4.55c-0.36,1.12-0.85,2.18-1.63,3.09c-0.13,0.15-0.22,0.34-0.34,0.5
				c-0.3,0.42-0.52,0.45-0.94,0.17c-0.15-0.1-0.31-0.2-0.48-0.24c-0.43-0.12-0.87-0.21-1.31-0.32c-1.96-0.51-3.92-1.03-5.88-1.53
				c-1.35-0.34-2.71-0.64-4.06-0.99c-1.65-0.43-3.3-0.9-4.95-1.34c-0.89-0.24-1.79-0.45-2.68-0.68c-2.4-0.63-4.79-1.26-7.19-1.88
				c-1.22-0.31-2.45-0.59-3.67-0.9c-0.41-0.11-0.74,0.02-1.09,0.2c-1.86,0.98-3.53,2.26-5.22,3.49c-0.5,0.37-1.1,0.61-1.65,0.9
				c-0.44,0.23-0.87,0.46-1.32,0.67c-0.19,0.08-0.48,0.19-0.61,0.11c-0.14-0.09-0.23-0.39-0.21-0.59c0.04-0.42,0.12-0.86,0.27-1.25
				c0.55-1.45,1.15-2.89,1.7-4.34c0.36-0.95,0.66-1.92,0.97-2.88c0.33-1.03,0.54-2.06,0.28-3.17c-0.19-0.8-0.13-1.66-0.28-2.47
				c-0.16-0.86-0.38-1.72-0.69-2.54c-0.67-1.78-1.21-3.59-1.61-5.44c-0.32-1.5-0.53-3.02-0.85-4.51c-0.21-0.97-0.52-1.91-0.79-2.87
				c-0.47-1.65-0.94-3.29-1.4-4.95c-0.13-0.48-0.24-0.97-0.3-1.46c-0.2-1.46-0.65-2.85-1.09-4.25c-0.1-0.31-0.07-0.66-0.1-0.99
				c-0.03-0.31-0.06-0.62-0.1-0.93c-0.08-0.52-0.03-0.58,0.47-0.67c0.17-0.03,0.35-0.07,0.51-0.16c1.3-0.71,2.6-1.45,3.9-2.16
				c0.37-0.2,0.77-0.38,1.17-0.53c1.82-0.67,3.55-1.54,5.3-2.38c1.38-0.66,2.81-1.23,4.23-1.81c1.79-0.73,3.59-1.46,5.41-2.11
				c1.32-0.47,2.68-0.79,4.02-1.19c1.58-0.46,3.15-0.94,4.73-1.4c0.24-0.07,0.48-0.14,0.72-0.16c0.34-0.04,0.51,0.21,0.36,0.51
				c-0.08,0.16-0.21,0.3-0.34,0.41c-0.86,0.76-1.72,1.52-2.59,2.27c-1.63,1.39-3.28,2.75-4.91,4.14c-1.5,1.29-2.99,2.61-4.46,3.93
				c-1.56,1.4-3.1,2.82-4.66,4.22c-0.3,0.27-0.63,0.55-1,0.67c-0.48,0.16-0.77,0.54-1.17,0.78c-0.28,0.17-0.33,0.4-0.26,0.7
				c0.13,0.52,0.24,1.05,0.39,1.58c0.31,1.13,0.64,2.25,0.97,3.38c0.51,1.73,1.04,3.45,1.54,5.18c0.56,1.95,1.1,3.9,1.66,5.85
				c0.34,1.19,0.7,2.38,1.04,3.57c0.13,0.45,0.28,0.91,0.36,1.37c0.13,0.7,0.57,1.03,1.22,1.17c1.08,0.23,2.15,0.47,3.23,0.72
				c1.1,0.25,2.19,0.53,3.28,0.78c0.63,0.15,1.27,0.29,1.91,0.43c0.72,0.17,1.44,0.34,2.17,0.52c1.03,0.25,2.06,0.49,3.09,0.75
				c0.94,0.23,1.88,0.48,2.82,0.72c1.42,0.36,2.84,0.69,4.25,1.1c0.6,0.17,0.88-0.16,1.28-0.47c1.6-1.23,2.98-2.69,4.36-4.14
				c1.47-1.55,2.85-3.2,4.24-4.82c1.18-1.37,2.34-2.74,3.48-4.14c1.27-1.55,2.51-3.13,3.77-4.69c1.02-1.26,2.05-2.51,3.08-3.75
				C503.62,456.17,503.76,456.13,503.93,456.04z"/>
			<path class="st2" d="M403.22,503.66c0.23,0.14,0.39,0.27,0.58,0.34c0.82,0.31,1.65,0.59,2.48,0.9c0.8,0.3,1.6,0.62,2.4,0.93
				c1.47,0.56,2.94,1.13,4.41,1.69c0.55,0.21,1.1,0.41,1.65,0.6c0.11,0.04,0.23,0.11,0.32,0.08c0.81-0.19,1.11,0.44,1.45,0.94
				c0.9,1.35,1.78,2.71,2.65,4.08c0.49,0.78,0.96,1.58,1.44,2.37c0.07,0.11,0.17,0.2,0.31,0.38c0.16-0.16,0.31-0.28,0.41-0.44
				c0.82-1.3,1.61-2.61,2.44-3.9c0.64-1.01,1.33-1.99,1.98-2.99c0.19-0.29,0.39-0.44,0.76-0.43c0.33,0.01,0.67-0.09,0.98-0.21
				c1.56-0.59,3.11-1.2,4.67-1.79c1.28-0.48,2.58-0.94,3.86-1.42c0.7-0.26,1.39-0.52,2.08-0.79c0.47-0.19,0.54-0.34,0.41-0.84
				c-0.15-0.59-0.33-1.17-0.49-1.75c-0.39-1.41-0.77-2.83-1.15-4.24c-0.08-0.28-0.11-0.57-0.17-0.86c-0.06-0.31,0.04-0.58,0.25-0.81
				c0.51-0.55,1-1.1,1.51-1.64c1.37-1.46,2.75-2.92,4.13-4.37c0.56-0.59,1.13-1.16,1.7-1.73c0.16-0.16,0.34-0.33,0.54-0.4
				c0.19-0.07,0.45-0.06,0.64,0.01c0.24,0.1,0.22,0.37,0.17,0.6c-0.06,0.24-0.13,0.48-0.21,0.71c-0.29,0.8-0.6,1.6-0.9,2.4
				c-0.22,0.59-0.44,1.18-0.67,1.77c-0.4,1.03-0.81,2.05-1.23,3.07c-0.1,0.24-0.03,0.41,0.08,0.62c1.02,1.96,2.04,3.92,3.03,5.89
				c0.53,1.05,1.01,2.12,1.52,3.17c0.06,0.12,0.12,0.24,0.21,0.34c0.41,0.47,0.42,0.47,0.11,1.02c-0.69,1.21-1.4,2.42-2.08,3.63
				c-0.42,0.74-0.82,1.5-1.23,2.25c-0.21,0.39-0.46,0.66-0.94,0.79c-0.73,0.2-1.43,0.54-2.14,0.82c-1.06,0.42-2.13,0.85-3.19,1.28
				c-1.31,0.53-2.62,1.07-3.94,1.59c-0.77,0.31-1.56,0.59-2.33,0.91c-0.3,0.13-0.6,0.31-0.84,0.53c-0.4,0.39-0.76,0.83-1.13,1.26
				c-2.17,2.56-4.34,5.12-6.51,7.68c-0.41,0.48-0.84,0.94-1.29,1.39c-0.74,0.75-1.38,0.76-2.09,0c-0.86-0.92-1.69-1.88-2.52-2.83
				c-0.98-1.12-1.95-2.24-2.92-3.38c-0.73-0.86-1.43-1.74-2.15-2.6c-0.46-0.55-0.94-1.1-1.43-1.63c-0.15-0.16-0.36-0.28-0.56-0.36
				c-1.17-0.47-2.35-0.92-3.52-1.4c-1.5-0.6-2.98-1.23-4.48-1.84c-1.17-0.47-2.35-0.92-3.52-1.37c-0.1-0.04-0.21-0.11-0.32-0.11
				c-0.41,0.01-0.6-0.25-0.77-0.56c-0.85-1.54-1.7-3.07-2.55-4.61c-0.31-0.55-0.62-1.1-0.96-1.63c-0.2-0.32-0.21-0.56,0.13-0.81
				c0.17-0.12,0.27-0.35,0.37-0.55c0.98-2.01,1.94-4.02,2.93-6.02c0.47-0.95,0.98-1.88,1.5-2.8c0.17-0.31,0.18-0.55,0.04-0.88
				c-0.71-1.75-1.4-3.52-2.08-5.28c-0.29-0.76-0.55-1.53-0.8-2.3c-0.08-0.26-0.26-0.59,0.07-0.8c0.3-0.19,0.63-0.12,0.88,0.11
				c0.35,0.31,0.68,0.65,1.01,0.99c2.14,2.23,4.26,4.47,6.41,6.69c0.44,0.45,0.61,0.91,0.45,1.52c-0.33,1.22-0.63,2.44-0.95,3.66
				C403.85,501.43,403.54,502.51,403.22,503.66z"/>
			<path class="st2" d="M430.3,486.17c-0.21-0.16-0.44-0.28-0.61-0.46c-1.1-1.16-2.19-2.33-3.28-3.51
				c-1.29-1.39-2.57-2.78-3.84-4.17c-0.41-0.45-0.78-0.94-1.19-1.38c-0.38-0.4-0.5-0.4-0.87,0c-0.83,0.89-1.63,1.8-2.45,2.7
				c-0.94,1.03-1.88,2.06-2.82,3.1c-0.73,0.8-1.45,1.6-2.19,2.4c-0.34,0.36-0.68,0.72-1.04,1.06c-0.13,0.12-0.34,0.16-0.55,0.26
				c-0.32-1.39-1.02-2.53-1.53-3.75c-0.46-1.1-0.95-2.19-1.41-3.29c-0.58-1.39-1.13-2.8-1.73-4.19c-0.28-0.64-0.29-1.1,0.26-1.68
				c0.8-0.85,1.42-1.86,2.11-2.8c0.73-1,1.46-2,2.2-2.99c1.21-1.62,2.4-3.26,3.64-4.86c1.65-2.14,3.34-4.25,5.01-6.38
				c0.14-0.18,0.25-0.38,0.37-0.56c0.3-0.46,0.77-0.47,1.09-0.05c1.19,1.55,2.39,3.09,3.58,4.65c1.15,1.5,2.29,3.01,3.43,4.52
				c1.85,2.47,3.7,4.94,5.55,7.4c0.38,0.5,0.64,1.08,1.16,1.48c0.14,0.11,0.13,0.56,0.05,0.81c-0.23,0.71-0.51,1.4-0.8,2.08
				c-1.07,2.51-2.16,5.01-3.24,7.51c-0.02,0.04-0.03,0.08-0.05,0.13C430.89,484.81,430.62,485.42,430.3,486.17z"/>
			<path class="st2" d="M482.13,458.26c-0.33,0.42-0.56,0.72-0.79,1.02c-0.85,1.08-1.7,2.16-2.55,3.24c-0.7,0.88-1.4,1.76-2.1,2.64
				c-0.11,0.14-0.25,0.26-0.4,0.36c-0.53,0.38-1.11,0.15-1.2-0.5c-0.04-0.3,0.03-0.63,0.12-0.92c0.34-1.07,0.75-2.12,1.05-3.21
				c0.31-1.13,0.51-2.29,0.75-3.43c0.02-0.08-0.01-0.17-0.03-0.35c-0.51,0.05-0.99,0.08-1.47,0.16c-1.31,0.22-2.62,0.44-3.93,0.68
				c-0.28,0.05-0.57,0.14-0.83,0.27c-0.62,0.31-1.2,0.16-1.74-0.15c-0.53-0.31-0.62-0.74-0.29-1.26c0.14-0.22,0.32-0.44,0.53-0.6
				c1.16-0.9,2.34-1.77,3.49-2.67c0.53-0.42,1.01-0.9,1.53-1.33c0.57-0.47,1.17-0.91,1.75-1.37c0.1-0.08,0.2-0.17,0.31-0.28
				c-0.2-0.47-0.42-0.91-0.58-1.37c-0.24-0.68-0.49-1.36-0.63-2.06c-0.26-1.32-0.74-2.55-1.25-3.78c-0.09-0.23-0.17-0.46-0.24-0.7
				c-0.24-0.87,0.33-1.52,1.24-1.39c0.69,0.1,1.27,0.47,1.8,0.88c0.8,0.62,1.57,1.28,2.37,1.91c0.21,0.17,0.43,0.31,0.69,0.49
				c0.14-0.22,0.26-0.38,0.36-0.55c0.4-0.76,0.76-1.54,1.21-2.27c0.74-1.2,1.54-2.38,2.34-3.55c0.15-0.21,0.37-0.4,0.6-0.52
				c0.61-0.31,1.01-0.17,1.22,0.47c0.21,0.66,0.39,1.35,0.43,2.04c0.1,1.71,0.11,3.42,0.15,5.13c0.01,0.22,0.03,0.44,0.05,0.72
				c0.21-0.04,0.37-0.04,0.49-0.1c1.11-0.55,2.24-1.06,3.31-1.69c0.7-0.4,1.3-0.97,1.94-1.46c0.11-0.08,0.2-0.18,0.31-0.26
				c0.2-0.13,0.42-0.09,0.54,0.08c0.09,0.12,0.16,0.35,0.1,0.47c-0.58,1.37-1.14,2.75-1.8,4.07c-0.5,1.01-1.13,1.95-1.74,2.9
				c-0.43,0.68-0.43,0.74,0.36,1c0.88,0.28,1.78,0.51,2.64,0.83c0.78,0.29,1.51,0.68,2.27,1.03c0.41,0.19,0.81,0.38,1.21,0.59
				c0.21,0.11,0.44,0.23,0.59,0.41c0.29,0.34,0.22,0.67-0.17,0.91c-0.23,0.14-0.48,0.26-0.74,0.32c-0.51,0.1-1.03,0.15-1.54,0.23
				c-0.71,0.11-1.42,0.22-2.12,0.36c-1.04,0.2-2.07,0.43-3.1,0.64c-0.51,0.1-0.63,0.2-0.54,0.66c0.34,1.8,0.11,3.6,0.03,5.4
				c-0.01,0.32-0.02,0.63-0.05,0.95c-0.02,0.22-0.04,0.45-0.11,0.66c-0.18,0.53-0.53,0.68-1.06,0.49c-0.56-0.19-0.93-0.61-1.31-1.03
				c-1.21-1.36-2.02-2.98-2.97-4.51C482.53,458.75,482.35,458.56,482.13,458.26z"/>
			<path class="st2" d="M362.12,444.59c0.3-0.2,0.49-0.31,0.67-0.45c0.84-0.68,1.64-1.41,2.52-2.05c0.48-0.35,1.06-0.59,1.62-0.78
				c0.26-0.09,0.63,0.01,0.89,0.14c0.51,0.25,0.64,0.65,0.44,1.19c-0.31,0.84-0.68,1.67-0.97,2.52c-0.3,0.9-0.51,1.82-0.79,2.73
				c-0.22,0.71-0.46,1.41-0.74,2.09c-0.22,0.55-0.22,0.6,0.23,0.95c0.69,0.54,1.35,1.12,2.04,1.67c0.97,0.77,1.95,1.53,2.92,2.3
				c0.6,0.48,1.2,0.95,1.8,1.43c0.35,0.28,0.63,0.62,0.55,1.09c-0.08,0.49-0.46,0.76-0.91,0.91c-0.44,0.14-0.87,0.21-1.29-0.09
				c-0.14-0.1-0.32-0.18-0.49-0.21c-1.82-0.3-3.64-0.59-5.47-0.87c-0.04-0.01-0.09,0.02-0.22,0.05c0,0.17-0.03,0.36,0.01,0.54
				c0.33,1.45,0.64,2.91,1.02,4.34c0.2,0.76,0.54,1.48,0.8,2.22c0.15,0.42,0.16,0.84-0.2,1.19c-0.24,0.24-0.51,0.29-0.79,0.12
				c-0.19-0.12-0.39-0.25-0.53-0.41c-0.74-0.9-1.48-1.82-2.2-2.74c-0.75-0.95-1.5-1.92-2.24-2.88c-0.33-0.43-0.65-0.86-1.04-1.38
				c-0.19,0.23-0.35,0.4-0.47,0.6c-0.67,1.09-1.3,2.22-2.01,3.29c-0.44,0.68-0.95,1.32-1.51,1.9c-0.28,0.29-0.73,0.42-1.12,0.58
				c-0.27,0.11-0.51-0.06-0.62-0.29c-0.13-0.28-0.25-0.59-0.27-0.89c-0.08-1.49-0.13-2.97-0.16-4.46c-0.01-0.58,0.08-1.17,0.13-1.75
				c0.05-0.66-0.03-0.74-0.65-0.85c-0.42-0.07-0.82-0.2-1.24-0.28c-0.77-0.15-1.54-0.28-2.32-0.41c-0.73-0.13-1.46-0.26-2.19-0.38
				c-0.22-0.04-0.45-0.04-0.67-0.1c-0.3-0.08-0.6-0.18-0.88-0.31c-0.26-0.12-0.5-0.33-0.4-0.63c0.09-0.25,0.3-0.6,0.51-0.64
				c0.87-0.19,1.53-0.76,2.29-1.14c0.71-0.36,1.46-0.58,2.21-0.82c0.69-0.21,1.38-0.41,2.07-0.64c0.18-0.06,0.34-0.18,0.53-0.29
				c-0.38-0.6-0.72-1.12-1.04-1.66c-0.43-0.71-0.86-1.43-1.25-2.17c-0.23-0.44-0.38-0.91-0.58-1.37c-0.33-0.77-0.66-1.53-1-2.29
				c-0.12-0.26-0.12-0.47,0.12-0.66c0.23-0.18,0.41-0.09,0.6,0.07c1.71,1.52,3.71,2.54,5.79,3.43c0.02,0.01,0.04,0,0.14-0.02
				c0.01-0.35,0.02-0.72,0.04-1.09c0.02-0.38,0.07-0.76,0.08-1.14c0.04-1.31,0.05-2.61,0.13-3.92c0.03-0.56,0.18-1.11,0.34-1.65
				c0.26-0.86,0.75-0.93,1.51-0.46c0.22,0.13,0.38,0.39,0.54,0.6c1.18,1.6,2.23,3.28,3.08,5.08
				C361.65,443.83,361.87,444.16,362.12,444.59z"/>
			<path class="st2" d="M429.48,458.72c0.09-0.72,0.16-1.3,0.22-1.88c0.17-1.48,0.32-2.95,0.5-4.43c0.12-1,0.29-2,0.42-3.01
				c0.14-1.05,0.28-2.1,0.39-3.15c0.04-0.37,0.16-0.66,0.53-0.78c0.37-0.12,0.59,0.13,0.8,0.37c1.15,1.28,2.31,2.57,3.46,3.86
				c0.98,1.11,1.96,2.23,2.92,3.36c0.85,0.99,1.67,2,2.52,3c0.26,0.3,0.33,0.59,0.2,0.99c-0.37,1.13-0.7,2.28-1.04,3.42
				c-0.38,1.3-0.72,2.6-1.13,3.89c-0.41,1.31-0.87,2.61-1.34,3.9c-0.23,0.63-0.6,0.67-1.02,0.13c-1.71-2.18-3.43-4.35-5.14-6.53
				c-0.68-0.87-1.35-1.74-2.02-2.62C429.62,459.05,429.53,458.81,429.48,458.72z"/>
			<path class="st2" d="M400.3,456.6c0.11-0.19,0.22-0.43,0.39-0.63c1.19-1.41,2.38-2.82,3.58-4.22c0.41-0.48,0.86-0.92,1.28-1.39
				c0.68-0.75,1.34-1.51,2.01-2.27c0.54-0.6,1.09-1.19,1.63-1.79c0.15-0.17,0.26-0.37,0.41-0.53c0.19-0.2,0.4-0.4,0.7-0.31
				c0.33,0.1,0.52,0.34,0.57,0.69c0.14,1.16,0.28,2.32,0.43,3.49c0.3,2.46,0.6,4.92,0.89,7.38c0.06,0.49,0.21,0.99,0.15,1.47
				c-0.05,0.42-0.27,0.86-0.53,1.2c-1.42,1.83-2.88,3.63-4.32,5.45c-0.85,1.08-1.69,2.16-2.54,3.24c-0.4,0.51-0.81,0.45-1.03-0.16
				c-0.9-2.48-1.76-4.97-2.42-7.52c-0.26-1-0.6-1.98-0.89-2.97C400.5,457.38,400.41,457.03,400.3,456.6z"/>
			<path class="st2" d="M420.94,507.58c-0.32,0.02-0.49-0.19-0.65-0.42c-0.89-1.33-1.79-2.65-2.67-3.99
				c-0.83-1.26-1.61-2.56-2.5-3.78c-0.38-0.51-0.45-0.88-0.14-1.42c0.71-1.25,1.38-2.53,2.07-3.79c0.52-0.95,1.03-1.9,1.55-2.84
				c0.35-0.63,0.71-1.26,1.09-1.87c0.75-1.22,1.77-1.23,2.51,0.01c0.76,1.28,1.49,2.58,2.22,3.88c0.78,1.39,1.53,2.8,2.29,4.21
				c0.05,0.1,0.1,0.21,0.15,0.3c0.35,0.57,0.32,1-0.13,1.59c-0.93,1.21-1.69,2.55-2.53,3.83c-0.83,1.26-1.68,2.51-2.52,3.76
				C421.48,507.3,421.29,507.55,420.94,507.58z"/>
			<path class="st2" d="M412.51,436.19c0.04-0.45,0.3-0.61,0.62-0.7c0.68-0.17,1.35-0.34,2.04-0.5c0.88-0.2,1.76-0.39,2.64-0.58
				c0.29-0.06,0.49-0.21,0.59-0.49c0.1-0.28,0.23-0.55,0.28-0.83c0.22-1.11,0.53-2.19,1.05-3.2c0.08-0.16,0.11-0.34,0.15-0.52
				c0.03-0.11,0.02-0.23,0.05-0.33c0.13-0.48,0.58-0.88,1-0.89c0.38-0.01,0.84,0.36,0.99,0.81c0.33,1,0.67,2,0.98,3.01
				c0.17,0.56,0.31,1.13,0.45,1.69c0.11,0.45,0.39,0.67,0.83,0.77c1.43,0.31,2.86,0.65,4.28,0.98c0.22,0.05,0.45,0.1,0.64,0.22
				c0.36,0.21,0.38,0.61,0.03,0.81c-0.48,0.28-0.99,0.55-1.52,0.7c-0.95,0.28-1.77,0.76-2.57,1.32c-0.57,0.4-0.72,1.02-0.88,1.61
				c-0.32,1.2-0.56,2.41-0.88,3.61c-0.37,1.4-0.98,2.71-1.64,4c-0.07,0.14-0.17,0.27-0.28,0.38c-0.3,0.29-0.59,0.28-0.88-0.01
				c-0.09-0.09-0.19-0.2-0.24-0.32c-0.64-1.41-1.37-2.78-1.69-4.33c-0.29-1.38-0.71-2.74-1.1-4.1c-0.07-0.24-0.25-0.47-0.44-0.65
				c-0.73-0.69-1.63-1.11-2.57-1.45c-0.57-0.2-1.11-0.47-1.66-0.73C412.65,436.42,412.57,436.26,412.51,436.19z"/>
		</g>
		<g>
			<polygon class="st2" points="239.29,470.62 333.05,504.82 383.93,493.42 374.48,509.81 317.79,512.66 273.45,496.98 			"/>
			<polygon class="st2" points="602.6,470.62 508.84,504.82 457.96,493.42 467.41,509.81 524.1,512.66 568.44,496.98 			"/>
		</g>
	</g>
</g>
</svg>
