<?xml version="1.0" encoding="utf-8"?>
<!-- Generator: Adobe Illustrator 28.0.0, SVG Export Plug-In . SVG Version: 6.00 Build 0)  -->
<svg version="1.1" id="Layer_1" xmlns="http://www.w3.org/2000/svg" xmlns:xlink="http://www.w3.org/1999/xlink" x="0px" y="0px"
	 viewBox="0 0 1833.33 520.95" style="enable-background:new 0 0 1833.33 520.95;" xml:space="preserve">
<style type="text/css">
	.st0{fill:#C7452E;}
	.st1{fill:#E36046;}
</style>
<g>
	<g>
		<polygon class="st0" points="1565.33,47.7 1601.22,0 1664.34,7.95 1681.66,51.11 1731.17,84.05 1670.53,89.73 1661.86,123.81 
			1612.36,136.3 1577.71,116.99 		"/>
		<polygon class="st0" points="1584.06,115.48 1616.28,107.94 1632.02,171.08 1588.64,181.64 		"/>
		<polygon class="st0" points="1587.61,181.73 1657.26,161.85 1703.7,219.42 1725.56,336.88 1713.26,408.27 1667.73,495.22 
			1577.05,493.93 1627.21,349.55 1625.85,255.12 		"/>
		<polygon class="st0" points="1588.64,181.64 1552.4,325.69 1567.25,382.48 1688.54,366.58 1799.92,337.05 1832.44,335.82 
			1833.33,300.7 1775.16,296.16 1747.94,318.87 1693.49,332.5 1640.27,326.82 1582.11,325.69 1621.71,228.01 		"/>
		<path class="st0" d="M1790.65,252.11c0,0-38.45-2.23-37.21,0.04c1.24,2.27,35.25,31.8,35.25,31.8l8.48-1.35l34.24-5.46
			l-1.24-21.58L1790.65,252.11z"/>
		<polygon class="st0" points="1809.13,347.56 1800.47,347.56 1797.17,282.6 1802.44,280.35 		"/>
		<polygon class="st0" points="1793.04,346.67 1772.01,356.89 1828.93,356.89 1821.51,345.53 		"/>
	</g>
	<polygon class="st1" points="1658.55,98.32 1646.41,98.32 1631.84,93.46 1640.34,108.03 1653.69,109.24 	"/>
	<g>
		<g>
			<polygon class="st0" points="182.51,115.9 221.43,101.79 183.85,73.56 179.83,27.69 159.7,1.81 101.99,5.34 61.73,33.57 
				73.81,85.32 48.31,87.67 30.87,114.72 41.6,159.42 25.5,185.29 0,175.89 21.47,206.47 56.36,197.06 76.49,164.12 73.81,125.31 
				91.26,112.37 104.68,139.42 157.01,141.78 			"/>
			<polyline class="st0" points="106.89,144.74 107.95,151.52 110.72,196.03 147.19,191.87 144.84,177.24 140.74,151.67 
				132.68,129.49 103.66,136.42 			"/>
			<polyline class="st0" points="123.15,153.37 157.72,208.66 185.77,220.42 187.42,236.88 169.27,268.64 128.71,281.58 
				102.82,279.49 98.66,267.21 85.12,227.28 82.66,188.66 			"/>
			<polygon class="st0" points="63.78,355.07 41.33,494.44 227.28,486.55 189.28,344.46 168.94,268.97 98,268.38 			"/>
		</g>
		<polygon class="st1" points="169.13,116.01 153.94,113.98 141.78,107.9 145.84,120.06 152.93,123.1 		"/>
	</g>
	<polygon class="st0" points="181.02,448.27 178.25,515.12 133.68,513.09 93.4,475.04 121.52,440.16 	"/>
	<g>
		<polyline class="st0" points="698.5,59.28 694.81,53.96 673.18,22.81 621.52,17.75 582.01,23.83 588.09,44.09 570.87,71.44 
			578.97,97.77 560.74,122.08 572.9,130.19 590.12,164.63 619.49,177.8 669.13,159.56 699.52,134.24 688.37,95.75 		"/>
		<polygon class="st0" points="644.82,177.8 654.95,212.24 699.52,201.1 694.45,153.49 683.31,139.31 642.79,164.63 		"/>
		<polygon class="st0" points="769.42,220.34 767.19,279.71 766.76,279.19 714.11,370.06 750.57,482.5 725.9,518.19 641.39,520.95 
			573.91,470.54 588.09,219.33 719.78,174.76 		"/>
		<polygon class="st1" points="590.12,145.38 608.35,142.34 624.56,153.49 622.53,159.56 605.31,162.6 		"/>
	</g>
	<polygon class="st0" points="102.69,189.75 134.09,285.98 171.87,326.8 241.46,310.29 267.8,263.69 279.96,239.38 256.66,224.19 
		267.8,192.79 252.61,192.79 240.45,225.2 242.48,246.47 228.29,281.93 176.63,292.06 126.55,188.27 	"/>
</g>
</svg>
