<?xml version="1.0" encoding="utf-8"?>
<!-- Generator: Adobe Illustrator 28.0.0, SVG Export Plug-In . SVG Version: 6.00 Build 0)  -->
<svg version="1.1" id="Layer_1" xmlns="http://www.w3.org/2000/svg" xmlns:xlink="http://www.w3.org/1999/xlink" x="0px" y="0px"
	 viewBox="0 0 1702.98 1072" style="enable-background:new 0 0 1702.98 1072;" xml:space="preserve">
<style type="text/css">
	.st0{fill:#3D0F0A;}
	.st1{fill:#4A1610;}
	.st2{fill:#BD5950;}
	.st3{fill:#AD3A30;}
	.st4{fill:#70251D;}
	.st5{fill:#873029;}
	.st6{fill:#591E18;}
	.st7{fill:#471813;}
	.st8{fill:#872B23;}
	.st9{fill:#0E0E0E;}
	.st10{fill:#FFFFFF;}
	.st11{fill:#C8C1C0;}
	.st12{fill:#1F1F1F;}
	.st13{fill:#484848;}
	.st14{font-family:'CaliforniaPersonalUse';}
	.st15{font-size:103.6267px;}
</style>
<g>
	<g>
		<polygon class="st0" points="1645.12,208.8 251.55,208.8 204.73,56.02 1598.29,56.02 		"/>
		<polygon class="st1" points="1453.99,1070.3 60.39,1070.3 251.52,208.8 1645.12,208.8 		"/>
		<polygon class="st2" points="1702.98,208.8 1645.12,208.8 1581.64,1.7 1639.51,1.7 		"/>
		<polygon class="st3" points="58.83,858.51 245.24,0.4 186.42,0.4 0.96,858.51 		"/>
		<polygon class="st4" points="123.86,1070.71 282.01,207.5 233.66,56.02 58.83,858.51 		"/>
		<g>
			<polygon class="st5" points="1518.13,1072 1460.26,1072 1395.23,859.81 1453.09,859.81 			"/>
			<polygon class="st3" points="1453.09,859.81 1639.51,1.7 1581.64,1.7 1395.23,859.81 			"/>
			<polygon class="st6" points="1518.13,1072 1702.98,208.8 1639.51,1.7 1453.09,859.81 			"/>
		</g>
		<polygon class="st7" points="1458.78,1070.3 65.21,1070.3 33.47,966.75 1427.04,966.75 		"/>
		<polygon class="st8" points="1568.4,56.02 233.66,56.02 187.56,0 1638.99,0 		"/>
	</g>
	<polygon class="st5" points="123.86,1070.71 65.03,1070.71 0,858.51 58.83,858.51 	"/>
</g>
<g>
	<polygon class="st9" points="1170.35,993.35 436.89,993.35 580.79,228.49 1314.25,228.49 	"/>
	<polygon class="st10" points="1133.58,997.72 400.62,970.63 572.67,211.61 1305.63,238.69 	"/>
	<polygon class="st11" points="1269.56,268.02 1287.68,254.22 1287.63,282 1191.63,717 1188.63,696 	"/>
	<polygon class="st9" points="436.89,993.35 395.27,973.93 455.63,968 454.05,993.21 	"/>
	<polygon class="st12" points="1128.73,973.93 395.27,973.93 539.17,209.07 1272.63,209.07 	"/>
</g>
<text transform="matrix(0.9635 0 -0.2676 0.9635 667.9902 411.19)" class="st13 st14 st15">Menu</text>
</svg>
