<?xml version="1.0" encoding="utf-8"?>
<!-- Generator: Adobe Illustrator 28.0.0, SVG Export Plug-In . SVG Version: 6.00 Build 0)  -->
<svg version="1.1" id="Layer_1" xmlns="http://www.w3.org/2000/svg" xmlns:xlink="http://www.w3.org/1999/xlink" x="0px" y="0px"
	 viewBox="0 0 567.19 1173.03" style="enable-background:new 0 0 567.19 1173.03;" xml:space="preserve">
<style type="text/css">
	.st0{fill:none;stroke:#000000;stroke-width:0.25;stroke-miterlimit:10;}
	.st1{clip-path:url(#XMLID_00000135681538565204795390000016939346160970608520_);fill:#FFFFFF;}
	.st2{clip-path:url(#XMLID_00000135681538565204795390000016939346160970608520_);fill:#E9E9EA;}
	.st3{clip-path:url(#XMLID_00000047050967861081676710000005010243085927196040_);fill:#ADA8A8;}
	.st4{clip-path:url(#XMLID_00000094610463016329838570000004554960725117184168_);fill:#E9E9EA;}
	.st5{clip-path:url(#XMLID_00000009568601839383006310000002500716680275553724_);fill:#8C3035;}
	.st6{clip-path:url(#XMLID_00000072972597807231217270000013360364800532504246_);fill:#2E2E2F;}
	.st7{clip-path:url(#XMLID_00000129927686162962717380000014803162355091126948_);fill:#AE3F35;}
	.st8{clip-path:url(#XMLID_00000010302400304869986200000012915898494185232785_);fill:#ADA8A8;}
	.st9{clip-path:url(#XMLID_00000022550980443669215680000016560267984097345665_);fill:#4A4B4C;}
	.st10{clip-path:url(#XMLID_00000022550980443669215680000016560267984097345665_);fill:#2E2E2F;}
	.st11{clip-path:url(#XMLID_00000073706992191478061910000001333719603904536228_);fill:#ADA8A8;}
	.st12{clip-path:url(#XMLID_00000005971970580895359150000008465459997486007226_);fill:#E9E9EA;}
</style>
<path class="st0" d="M652.62,603.54"/>
<path d="M1134.75,838.83"/>
<g>
	<g>
		<defs>
			<path id="XMLID_00000178163787156765917980000012176448451861118388_" d="M165.78,151.35h106.13v21.57l85.52,4.3l79.68,160.3
				V458.4h-84.9v56.5c-173.61,1.65-266.63,2.54-266.63,2.54l0,0c0,0-3.21-8.7-9.22-24.94C50.91,500.66,25.46,508.82,0,516.98
				c1.74-81.9,3.48-163.81,5.22-245.71c37.96-31.77,75.91-63.54,113.87-95.31l47.28-3.03L165.78,151.35z"/>
		</defs>
		<use xlink:href="#XMLID_00000178163787156765917980000012176448451861118388_"  style="overflow:visible;fill:#FFFFFF;"/>
		<clipPath id="XMLID_00000061439192281290649350000003482167269555704992_">
			<use xlink:href="#XMLID_00000178163787156765917980000012176448451861118388_"  style="overflow:visible;"/>
		</clipPath>
		<polyline style="clip-path:url(#XMLID_00000061439192281290649350000003482167269555704992_);fill:#FFFFFF;" points="
			637.33,514.9 639.99,705.95 672.21,705.95 672.21,585.06 637.33,514.9 		"/>
		<polyline style="clip-path:url(#XMLID_00000061439192281290649350000003482167269555704992_);fill:#E9E9EA;" points="
			40.05,245.42 42.66,453.03 129.91,454.34 129.91,193.06 100.36,190.69 40.05,245.42 		"/>
		<polyline style="clip-path:url(#XMLID_00000061439192281290649350000003482167269555704992_);fill:#E9E9EA;" points="
			240.32,151.35 224.65,172.92 166.37,172.92 172.44,184.31 199.83,195.71 250.77,195.71 283.33,195.71 291.81,173.92 
			271.92,172.92 271.92,151.35 240.32,151.35 		"/>
		<polyline style="clip-path:url(#XMLID_00000061439192281290649350000003482167269555704992_);fill:#E9E9EA;" points="
			409.78,282.53 408.64,342.5 421.78,359.85 419.15,460.48 450.69,464.97 452.61,325.59 413.9,261.3 409.78,282.53 		"/>
	</g>
	<g>
		<defs>
			<polygon id="XMLID_00000173874515798980648500000007977537102138802050_" points="519.89,470.22 480.47,470.22 469.96,493.88 
				469.96,470.22 354.33,470.22 354.33,514.9 475.22,517.53 492.3,483.36 517.26,482.05 			"/>
		</defs>
		<use xlink:href="#XMLID_00000173874515798980648500000007977537102138802050_"  style="overflow:visible;fill:#C6C0BF;"/>
		<clipPath id="XMLID_00000078036699477492882430000000984858057650626205_">
			<use xlink:href="#XMLID_00000173874515798980648500000007977537102138802050_"  style="overflow:visible;"/>
		</clipPath>
		<polyline style="clip-path:url(#XMLID_00000078036699477492882430000000984858057650626205_);fill:#ADA8A8;" points="
			354.33,514.9 475.22,517.53 492.3,483.36 517.26,482.05 519.89,470.22 480.47,470.22 469.96,493.88 469.96,470.22 429.67,470.69 
			430.98,493.88 409.96,470.57 391.56,470.45 413.9,493.88 354.33,493.88 354.33,514.9 		"/>
	</g>
	<g>
		<defs>
			<polygon id="XMLID_00000127044777718745605420000001912196658611248546_" points="354.33,458.4 567.19,458.4 567.19,471.54 
				354.33,470.22 			"/>
		</defs>
		<use xlink:href="#XMLID_00000127044777718745605420000001912196658611248546_"  style="overflow:visible;fill:#FFFFFF;"/>
		<clipPath id="XMLID_00000037664673010547866580000014641275116469503389_">
			<use xlink:href="#XMLID_00000127044777718745605420000001912196658611248546_"  style="overflow:visible;"/>
		</clipPath>
		<polyline style="clip-path:url(#XMLID_00000037664673010547866580000014641275116469503389_);fill:#E9E9EA;" points="
			354.33,464.97 567.19,464.97 567.19,471.54 453.32,493.88 354.33,486.76 354.33,464.97 		"/>
	</g>
	<g>
		<defs>
			<path id="XMLID_00000162319159222787761950000004632418737461105329_" d="M498.54,337.51c0.91,40.29,1.82,80.59,2.74,120.88
				c-19.75,0-39.49,0-59.24,0c0-40.29,0-80.59,0-120.88c8.09-7.5,16.18-15,24.27-22.5l2.01-53.71l15.79,0.76l-0.03,55.74
				L498.54,337.51z"/>
		</defs>
		<use xlink:href="#XMLID_00000162319159222787761950000004632418737461105329_"  style="overflow:visible;fill:#BB5141;"/>
		<clipPath id="XMLID_00000106827103668100554010000009001096082384399235_">
			<use xlink:href="#XMLID_00000162319159222787761950000004632418737461105329_"  style="overflow:visible;"/>
		</clipPath>
		<polyline style="clip-path:url(#XMLID_00000106827103668100554010000009001096082384399235_);fill:#8C3035;" points="
			442.04,345.22 471.66,322.51 476.64,261.3 452.99,261.3 454.3,308.06 439.41,322.51 442.04,345.22 		"/>
	</g>
	<path class="st0" d="M76.83,505.11"/>
	<g>
		<defs>
			<polygon id="XMLID_00000131333051539071209720000003648248727891967113_" points="273.55,167.47 359.58,171.83 354.33,514.86 
				76.83,517.53 76.83,210.2 119.81,170.55 167.37,167.47 220.75,314.65 			"/>
		</defs>
		<use xlink:href="#XMLID_00000131333051539071209720000003648248727891967113_"  style="overflow:visible;"/>
		<clipPath id="XMLID_00000115479640237906052170000003000802596283620752_">
			<use xlink:href="#XMLID_00000131333051539071209720000003648248727891967113_"  style="overflow:visible;"/>
		</clipPath>
		<polyline style="clip-path:url(#XMLID_00000115479640237906052170000003000802596283620752_);fill:#2E2E2F;" points="
			273.55,167.47 358.21,261.3 236.51,369.82 161.62,514.9 161.62,514.9 157.68,524.86 354.33,524.86 359.58,171.83 273.55,167.47 		
			"/>
		<polyline style="clip-path:url(#XMLID_00000115479640237906052170000003000802596283620752_);fill:#2E2E2F;" points="76.83,210.2 
			135.94,278.5 119.81,170.55 93.95,151.35 76.83,210.2 		"/>
	</g>
	<g>
		<defs>
			<polygon id="XMLID_00000158008358037985724890000016403889618188628396_" points="167.37,172.92 175.77,195.71 209.25,184.31 
				209.25,189.8 223.04,189.8 223.04,184.31 265.25,195.71 273.55,172.92 			"/>
		</defs>
		<use xlink:href="#XMLID_00000158008358037985724890000016403889618188628396_"  style="overflow:visible;fill:#903B36;"/>
		<clipPath id="XMLID_00000116195851657837818430000010744970363226967713_">
			<use xlink:href="#XMLID_00000158008358037985724890000016403889618188628396_"  style="overflow:visible;"/>
		</clipPath>
		<polygon style="clip-path:url(#XMLID_00000116195851657837818430000010744970363226967713_);fill:#AE3F35;" points="167.37,189.8 
			215.58,177.98 273.55,191.12 285.03,168.05 157.68,167.47 		"/>
	</g>
	<g>
		<defs>
			<polygon id="XMLID_00000012461519522067347970000007037055675686310831_" points="166.78,151.35 273.55,151.35 274.09,106.48 
				285.03,105.17 285.03,72.81 272.9,71.8 272.9,30.34 218.29,0 160.65,36.4 160.65,72.81 149.53,72.81 149.53,105.17 
				165.71,112.25 			"/>
		</defs>
		<use xlink:href="#XMLID_00000012461519522067347970000007037055675686310831_"  style="overflow:visible;fill:#C6C0BF;"/>
		<clipPath id="XMLID_00000087408987741451880100000006817904517549663929_">
			<use xlink:href="#XMLID_00000012461519522067347970000007037055675686310831_"  style="overflow:visible;"/>
		</clipPath>
		<polyline style="clip-path:url(#XMLID_00000087408987741451880100000006817904517549663929_);fill:#ADA8A8;" points="218.29,0 
			219.87,96.51 249.65,121.48 249.65,150.38 302.21,151.35 314.04,0 218.29,0 		"/>
	</g>
	<g>
		<defs>
			<polygon id="XMLID_00000060718902642949280880000008047328201966259383_" points="76.83,517.53 354.33,514.9 249.24,1096.17 
				265.42,1138.64 311.94,1138.64 332.16,1173.03 208.79,1173.03 204.75,1138.64 109.69,1140.67 127.9,1108.31 166.32,1094.15 
				76.83,555.16 			"/>
		</defs>
		<use xlink:href="#XMLID_00000060718902642949280880000008047328201966259383_"  style="overflow:visible;"/>
		<clipPath id="XMLID_00000113326593091613122470000018280988776030474637_">
			<use xlink:href="#XMLID_00000060718902642949280880000008047328201966259383_"  style="overflow:visible;"/>
		</clipPath>
		<polygon style="clip-path:url(#XMLID_00000113326593091613122470000018280988776030474637_);fill:#4A4B4C;" points="
			210.23,598.98 167.37,720.64 199.72,982.12 		"/>
		<polyline style="clip-path:url(#XMLID_00000113326593091613122470000018280988776030474637_);fill:#2E2E2F;" points="
			293.56,514.9 311.41,679.91 249.24,1096.17 379.73,514.9 293.56,514.9 		"/>
	</g>
	<g>
		<defs>
			<path id="XMLID_00000053519702001384474200000014970984056139614121_" d="M2.03,422.31L0,516.98
				c16.21-3.96,32.41-7.91,48.62-11.87c21.9-8.31,43.8-16.61,65.7-24.92c19.27-5.07,38.54-10.15,57.81-15.22l17.08,13.91h52.56
				l31.78-31.54v-25.03l-27.84-22.27h-52.56l-6.57-10.51l-19.21,7.88l-17.84,17.08l-12.75,6.57L2.03,422.31z"/>
		</defs>
		<use xlink:href="#XMLID_00000053519702001384474200000014970984056139614121_"  style="overflow:visible;fill:#C6C0BF;"/>
		<clipPath id="XMLID_00000122682558228875001190000012978019215984281017_">
			<use xlink:href="#XMLID_00000053519702001384474200000014970984056139614121_"  style="overflow:visible;"/>
		</clipPath>
		<polyline style="clip-path:url(#XMLID_00000122682558228875001190000012978019215984281017_);fill:#ADA8A8;" points="
			172.13,464.97 167.37,440.77 -11.83,478.87 -10.51,534.06 174.76,482.82 172.13,464.97 		"/>
	</g>
	<g>
		<defs>
			<polygon id="XMLID_00000173124342371098245740000014449345052972635571_" points="35.03,612 35.03,417.8 135.94,417.8 
				135.94,600.94 115.18,594.9 85.49,604.88 72.06,604.19 			"/>
		</defs>
		<use xlink:href="#XMLID_00000173124342371098245740000014449345052972635571_"  style="overflow:visible;fill:#FFFFFF;"/>
		<clipPath id="XMLID_00000173868564643031656250000006627674377155225989_">
			<use xlink:href="#XMLID_00000173124342371098245740000014449345052972635571_"  style="overflow:visible;"/>
		</clipPath>
		<polyline style="clip-path:url(#XMLID_00000173868564643031656250000006627674377155225989_);fill:#E9E9EA;" points="
			120.88,417.8 124.83,577.42 96,601.35 94.61,612 155.05,616.07 149.53,414.49 120.88,417.8 		"/>
	</g>
</g>
</svg>
